<?xml version="1.0" encoding="UTF-8"?>
<svg xmlns="http://www.w3.org/2000/svg" xmlns:xlink="http://www.w3.org/1999/xlink" width="375pt" height="207pt" viewBox="0 0 375 207" version="1.1">
<g id="surface1">
<path style=" stroke:none;fill-rule:evenodd;fill:rgb(92.89856%,10.998535%,14.099121%);fill-opacity:1;" d="M 119.789063 83.804688 L 166.859375 17.550781 C 136.742188 23.613281 114.742188 42.773438 114.742188 65.472656 C 114.742188 71.945313 116.53125 78.128906 119.789063 83.804688 "/>
<path style=" stroke:none;fill-rule:evenodd;fill:rgb(15.686035%,9.411621%,45.881653%);fill-opacity:1;" d="M 170.070313 25.613281 L 124.3125 90.277344 C 130.679688 97.921875 139.902344 104.292969 150.976563 108.707031 L 187.296875 52.976563 L 223.898438 108.558594 C 234.675781 104.203125 243.675781 97.988281 249.964844 90.550781 L 205.621094 25.613281 C 197.1875 13.265625 178.492188 13.710938 170.070313 25.613281 "/>
<path style=" stroke:none;fill-rule:evenodd;fill:rgb(92.89856%,10.998535%,14.099121%);fill-opacity:1;" d="M 207.023438 17.425781 L 254.414063 84.328125 C 257.863281 78.511719 259.765625 72.144531 259.765625 65.472656 C 259.765625 42.617188 237.460938 23.351563 207.023438 17.425781 "/>
<path style=" stroke:none;fill-rule:evenodd;fill:rgb(92.89856%,10.998535%,14.099121%);fill-opacity:1;" d="M 217.257813 110.933594 L 187.378906 65.472656 L 158.015625 111.167969 C 166.960938 113.886719 176.851563 115.394531 187.253906 115.394531 C 197.953125 115.394531 208.113281 113.796875 217.257813 110.933594 "/>
<path style=" stroke:none;fill-rule:evenodd;fill:rgb(15.686035%,9.411621%,45.881653%);fill-opacity:1;" d="M 267.003906 65.472656 C 267.003906 96.351563 231.355469 121.382813 187.378906 121.382813 C 143.402344 121.382813 107.753906 96.351563 107.753906 65.472656 C 107.753906 34.59375 143.402344 9.558594 187.378906 9.558594 C 231.355469 9.558594 267.003906 34.59375 267.003906 65.472656 Z M 187.253906 0.570313 C 130.867188 0.570313 85.164063 29.625 85.164063 65.46875 C 85.164063 101.3125 130.867188 130.371094 187.253906 130.371094 C 243.636719 130.371094 289.34375 101.3125 289.34375 65.46875 C 289.34375 29.625 243.636719 0.570313 187.253906 0.570313 "/>
<path style=" stroke:none;fill-rule:evenodd;fill:rgb(15.686035%,9.411621%,45.881653%);fill-opacity:1;" d="M 21.824219 149.5625 L 57.144531 149.5625 C 62.316406 149.5625 62.28125 154.597656 62.042969 157.300781 L 16.738281 157.300781 C 16.4375 152.722656 17.363281 149.5625 21.824219 149.5625 Z M 16.082031 168.996094 L 69 168.996094 C 73.074219 168.996094 78.359375 165.210938 78.359375 161.136719 L 78.359375 150.777344 C 78.359375 141.789063 70 137.484375 62.636719 137.484375 L 15.457031 137.484375 C 7.234375 137.484375 0.046875 146.296875 0.046875 153.398438 L 0.046875 173.117188 C 0.046875 180.648438 8.921875 188.65625 16.457031 188.65625 L 77.113281 188.65625 L 77.113281 176.859375 L 23.070313 176.859375 C 17.941406 176.859375 16.039063 173.492188 16.082031 168.996094 "/>
<path style=" stroke:none;fill-rule:evenodd;fill:rgb(15.686035%,9.411621%,45.881653%);fill-opacity:1;" d="M 87.785156 137.484375 L 103.757813 137.484375 L 103.757813 188.65625 L 87.785156 188.65625 L 87.785156 137.484375 "/>
<path style=" stroke:none;fill-rule:evenodd;fill:rgb(15.686035%,9.411621%,45.881653%);fill-opacity:1;" d="M 167.160156 157.074219 C 187.199219 157.1875 186.679688 188.65625 168.410156 188.65625 L 130.09375 188.65625 C 121.824219 188.65625 112.246094 182.074219 112.246094 173.554688 L 112.246094 150.839844 C 112.246094 144.304688 119.9375 137.484375 127.722656 137.484375 L 181.265625 137.484375 L 181.390625 149.339844 L 136.585938 149.339844 C 132.671875 149.339844 128.097656 153.539063 128.097656 157.453125 L 128.097656 167.8125 C 128.097656 172.109375 132.660156 177.171875 136.957031 177.171875 L 163.417969 177.171875 C 168.191406 177.171875 168.6875 168.9375 162.917969 168.9375 L 145.695313 168.9375 L 145.695313 156.953125 L 167.160156 157.074219 "/>
<path style=" stroke:none;fill-rule:evenodd;fill:rgb(15.686035%,9.411621%,45.881653%);fill-opacity:1;" d="M 293.027344 188.65625 L 276.929688 188.65625 L 276.929688 157.015625 L 329.597656 157.015625 C 334.753906 157.015625 334.628906 149.402344 329.597656 149.402344 L 276.929688 149.402344 L 276.929688 137.484375 L 339.832031 137.484375 C 345.660156 137.484375 350.375 142.578125 350.375 148.28125 L 350.375 161.011719 C 350.375 164.949219 345.515625 169.03125 340.953125 169.03125 L 335.960938 169.03125 L 374.960938 206.25 L 353.058594 206.25 L 314.621094 169.03125 L 293.027344 169.03125 L 293.027344 188.65625 "/>
<path style=" stroke:none;fill-rule:evenodd;fill:rgb(15.686035%,9.411621%,45.881653%);fill-opacity:1;" d="M 211.992188 149.5625 L 247.3125 149.5625 C 252.488281 149.5625 252.453125 154.597656 252.214844 157.300781 L 206.910156 157.300781 C 206.609375 152.722656 207.535156 149.5625 211.992188 149.5625 Z M 206.253906 168.996094 L 259.171875 168.996094 C 263.242188 168.996094 268.53125 165.210938 268.53125 161.136719 L 268.53125 150.777344 C 268.53125 141.789063 260.171875 137.484375 252.804688 137.484375 L 205.628906 137.484375 C 197.402344 137.484375 190.214844 146.296875 190.214844 153.398438 L 190.214844 173.117188 C 190.214844 180.648438 199.09375 188.65625 206.628906 188.65625 L 267.28125 188.65625 L 267.28125 176.859375 L 213.242188 176.859375 C 208.113281 176.859375 206.210938 173.492188 206.253906 168.996094 "/>
</g>
</svg>
